# xmcd
#
# Track frame offsets:
# 150
# 13340
# 25940
# 38247
# 52830
# 70660
# 85437
# 95990
# 115322
# 133357
#
# Disc length: 2031 seconds
#
# Revision: 1
# Processed by: cddbd v1.5.1PL2 Copyright (c) Steve Scherf et al.
# Submitted via: Easy CD Ripper v2.30
#
DISCID=8d07ed0a
DTITLE=Lee Greenwood - A Perfect 10
DYEAR=1989
DGENRE=Country
TTITLE0=Lookin at a Sure Thing - Lee Greenwood
TTITLE1=Hopelessly Yours - Lee Greenwood
TTITLE2=I'm not missin' Anything - Lee Greenwood
TTITLE3=We're Both to Blame - Lee Greenwood
TTITLE4=If you don;t Know Me By Now - Lee Greenwood
TTITLE5=I'd Give Anything - Lee Greenwood
TTITLE6=The Will to Love - Lee Greenwood
TTITLE7=From Now On - Lee Greenwood
TTITLE8=It Wasn't Love Before - Lee Greenwood
TTITLE9=You're not Alone - Lee Greenwood
EXTD=
EXTT0=with Carol Chase
EXTT1=with Suzy Bogus
EXTT2=With Karen Staley
EXTT3=
EXTT4=
EXTT5=
EXTT6=
EXTT7=
EXTT8=
EXTT9=
PLAYORDER=
